<?xml version="1.0" encoding="UTF-8" standalone="no"?>
<!DOCTYPE svg PUBLIC "-//W3C//DTD SVG 1.1//EN"
 "http://www.w3.org/Graphics/SVG/1.1/DTD/svg11.dtd">
<!-- Generated by graphviz version 2.40.1 (20161225.0304)
 -->
<!-- Title: %3 Pages: 1 -->
<svg width="858pt" height="548pt"
 viewBox="0.00 0.00 857.66 548.00" xmlns="http://www.w3.org/2000/svg" xmlns:xlink="http://www.w3.org/1999/xlink">
<g id="graph0" class="graph" transform="scale(1 1) rotate(0) translate(4 544)">
<title>%3</title>
<polygon fill="#ffffff" stroke="transparent" points="-4,4 -4,-544 853.6609,-544 853.6609,4 -4,4"/>
<!-- [root] aws_internet_gateway.igw -->
<g id="node1" class="node">
<title>[root] aws_internet_gateway.igw</title>
<polygon fill="none" stroke="#000000" points="340.8604,-252 176.3327,-252 176.3327,-216 340.8604,-216 340.8604,-252"/>
<text text-anchor="middle" x="258.5965" y="-229.8" font-family="Times,serif" font-size="14.00" fill="#000000">aws_internet_gateway.igw</text>
</g>
<!-- [root] aws_vpc.vpc_factorsense -->
<g id="node5" class="node">
<title>[root] aws_vpc.vpc_factorsense</title>
<polygon fill="none" stroke="#000000" points="337.7629,-180 179.4301,-180 179.4301,-144 337.7629,-144 337.7629,-180"/>
<text text-anchor="middle" x="258.5965" y="-157.8" font-family="Times,serif" font-size="14.00" fill="#000000">aws_vpc.vpc_factorsense</text>
</g>
<!-- [root] aws_internet_gateway.igw&#45;&gt;[root] aws_vpc.vpc_factorsense -->
<g id="edge1" class="edge">
<title>[root] aws_internet_gateway.igw&#45;&gt;[root] aws_vpc.vpc_factorsense</title>
<path fill="none" stroke="#000000" d="M258.5965,-215.8314C258.5965,-208.131 258.5965,-198.9743 258.5965,-190.4166"/>
<polygon fill="#000000" stroke="#000000" points="262.0966,-190.4132 258.5965,-180.4133 255.0966,-190.4133 262.0966,-190.4132"/>
</g>
<!-- [root] aws_route_table.public_route -->
<g id="node2" class="node">
<title>[root] aws_route_table.public_route</title>
<polygon fill="none" stroke="#000000" points="380.6004,-324 198.5926,-324 198.5926,-288 380.6004,-288 380.6004,-324"/>
<text text-anchor="middle" x="289.5965" y="-301.8" font-family="Times,serif" font-size="14.00" fill="#000000">aws_route_table.public_route</text>
</g>
<!-- [root] aws_route_table.public_route&#45;&gt;[root] aws_internet_gateway.igw -->
<g id="edge2" class="edge">
<title>[root] aws_route_table.public_route&#45;&gt;[root] aws_internet_gateway.igw</title>
<path fill="none" stroke="#000000" d="M281.7739,-287.8314C278.3856,-279.9617 274.3424,-270.5712 270.5889,-261.8533"/>
<polygon fill="#000000" stroke="#000000" points="273.6938,-260.214 266.5244,-252.4133 267.2644,-262.9822 273.6938,-260.214"/>
</g>
<!-- [root] aws_route_table_association.public_subnet -->
<g id="node3" class="node">
<title>[root] aws_route_table_association.public_subnet</title>
<polygon fill="none" stroke="#000000" points="478.0936,-396 219.0994,-396 219.0994,-360 478.0936,-360 478.0936,-396"/>
<text text-anchor="middle" x="348.5965" y="-373.8" font-family="Times,serif" font-size="14.00" fill="#000000">aws_route_table_association.public_subnet</text>
</g>
<!-- [root] aws_route_table_association.public_subnet&#45;&gt;[root] aws_route_table.public_route -->
<g id="edge3" class="edge">
<title>[root] aws_route_table_association.public_subnet&#45;&gt;[root] aws_route_table.public_route</title>
<path fill="none" stroke="#000000" d="M333.7083,-359.8314C326.8435,-351.454 318.5664,-341.3531 311.0454,-332.1749"/>
<polygon fill="#000000" stroke="#000000" points="313.7306,-329.9297 304.6852,-324.4133 308.3162,-334.3665 313.7306,-329.9297"/>
</g>
<!-- [root] aws_subnet.subnet_public -->
<g id="node4" class="node">
<title>[root] aws_subnet.subnet_public</title>
<polygon fill="none" stroke="#000000" points="522.4661,-252 358.727,-252 358.727,-216 522.4661,-216 522.4661,-252"/>
<text text-anchor="middle" x="440.5965" y="-229.8" font-family="Times,serif" font-size="14.00" fill="#000000">aws_subnet.subnet_public</text>
</g>
<!-- [root] aws_route_table_association.public_subnet&#45;&gt;[root] aws_subnet.subnet_public -->
<g id="edge4" class="edge">
<title>[root] aws_route_table_association.public_subnet&#45;&gt;[root] aws_subnet.subnet_public</title>
<path fill="none" stroke="#000000" d="M363.2652,-359.9492C371.3781,-349.6608 381.4378,-336.3858 389.5965,-324 403.1412,-303.4377 416.8057,-279.0862 426.5769,-260.9019"/>
<polygon fill="#000000" stroke="#000000" points="429.7021,-262.4795 431.3105,-252.0075 423.5227,-259.1909 429.7021,-262.4795"/>
</g>
<!-- [root] aws_subnet.subnet_public&#45;&gt;[root] aws_vpc.vpc_factorsense -->
<g id="edge5" class="edge">
<title>[root] aws_subnet.subnet_public&#45;&gt;[root] aws_vpc.vpc_factorsense</title>
<path fill="none" stroke="#000000" d="M394.6702,-215.8314C370.0042,-206.0734 339.4274,-193.977 313.5105,-183.7242"/>
<polygon fill="#000000" stroke="#000000" points="314.7789,-180.4621 304.1925,-180.038 312.2038,-186.9713 314.7789,-180.4621"/>
</g>
<!-- [root] data.aws_availability_zones.availability_zones -->
<g id="node6" class="node">
<title>[root] data.aws_availability_zones.availability_zones</title>
<polygon fill="none" stroke="#000000" points="823.8974,-180 545.2957,-180 545.2957,-144 823.8974,-144 823.8974,-180"/>
<text text-anchor="middle" x="684.5965" y="-157.8" font-family="Times,serif" font-size="14.00" fill="#000000">data.aws_availability_zones.availability_zones</text>
</g>
<!-- [root] aws_subnet.subnet_public&#45;&gt;[root] data.aws_availability_zones.availability_zones -->
<g id="edge6" class="edge">
<title>[root] aws_subnet.subnet_public&#45;&gt;[root] data.aws_availability_zones.availability_zones</title>
<path fill="none" stroke="#000000" d="M501.8531,-215.9243C535.7894,-205.9103 578.1446,-193.412 613.5314,-182.97"/>
<polygon fill="#000000" stroke="#000000" points="614.7142,-186.2703 623.3148,-180.0831 612.733,-179.5565 614.7142,-186.2703"/>
</g>
<!-- [root] var.subnet_bits -->
<g id="node8" class="node">
<title>[root] var.subnet_bits</title>
<ellipse fill="none" stroke="#000000" cx="441.5965" cy="-162" rx="85.5205" ry="18"/>
<text text-anchor="middle" x="441.5965" y="-157.8" font-family="Times,serif" font-size="14.00" fill="#000000">[root] var.subnet_bits</text>
</g>
<!-- [root] aws_subnet.subnet_public&#45;&gt;[root] var.subnet_bits -->
<g id="edge7" class="edge">
<title>[root] aws_subnet.subnet_public&#45;&gt;[root] var.subnet_bits</title>
<path fill="none" stroke="#000000" d="M440.8489,-215.8314C440.9558,-208.131 441.083,-198.9743 441.2018,-190.4166"/>
<polygon fill="#000000" stroke="#000000" points="444.7015,-190.4609 441.3408,-180.4133 437.7021,-190.3637 444.7015,-190.4609"/>
</g>
<!-- [root] provider.aws -->
<g id="node7" class="node">
<title>[root] provider.aws</title>
<polygon fill="none" stroke="#000000" points="593.5965,-108 514.9882,-90 593.5965,-72 672.2048,-90 593.5965,-108"/>
<text text-anchor="middle" x="593.5965" y="-85.8" font-family="Times,serif" font-size="14.00" fill="#000000">provider.aws</text>
</g>
<!-- [root] aws_vpc.vpc_factorsense&#45;&gt;[root] provider.aws -->
<g id="edge8" class="edge">
<title>[root] aws_vpc.vpc_factorsense&#45;&gt;[root] provider.aws</title>
<path fill="none" stroke="#000000" d="M337.9868,-144.937C401.4244,-131.3027 488.4336,-112.6022 542.8114,-100.915"/>
<polygon fill="#000000" stroke="#000000" points="543.8622,-104.2692 552.9035,-98.746 542.3913,-97.4255 543.8622,-104.2692"/>
</g>
<!-- [root] var.cidr_block -->
<g id="node9" class="node">
<title>[root] var.cidr_block</title>
<ellipse fill="none" stroke="#000000" cx="175.5965" cy="-90" rx="83.0804" ry="18"/>
<text text-anchor="middle" x="175.5965" y="-85.8" font-family="Times,serif" font-size="14.00" fill="#000000">[root] var.cidr_block</text>
</g>
<!-- [root] aws_vpc.vpc_factorsense&#45;&gt;[root] var.cidr_block -->
<g id="edge9" class="edge">
<title>[root] aws_vpc.vpc_factorsense&#45;&gt;[root] var.cidr_block</title>
<path fill="none" stroke="#000000" d="M237.6521,-143.8314C227.3728,-134.9144 214.8425,-124.0447 203.7399,-114.4135"/>
<polygon fill="#000000" stroke="#000000" points="205.8078,-111.574 195.9604,-107.665 201.2208,-116.8617 205.8078,-111.574"/>
</g>
<!-- [root] var.name -->
<g id="node10" class="node">
<title>[root] var.name</title>
<ellipse fill="none" stroke="#000000" cx="341.5965" cy="-90" rx="64.7459" ry="18"/>
<text text-anchor="middle" x="341.5965" y="-85.8" font-family="Times,serif" font-size="14.00" fill="#000000">[root] var.name</text>
</g>
<!-- [root] aws_vpc.vpc_factorsense&#45;&gt;[root] var.name -->
<g id="edge10" class="edge">
<title>[root] aws_vpc.vpc_factorsense&#45;&gt;[root] var.name</title>
<path fill="none" stroke="#000000" d="M279.5409,-143.8314C289.9748,-134.7803 302.7279,-123.7174 313.953,-113.9799"/>
<polygon fill="#000000" stroke="#000000" points="316.5412,-116.3681 321.8016,-107.1715 311.9542,-111.0804 316.5412,-116.3681"/>
</g>
<!-- [root] data.aws_availability_zones.availability_zones&#45;&gt;[root] provider.aws -->
<g id="edge11" class="edge">
<title>[root] data.aws_availability_zones.availability_zones&#45;&gt;[root] provider.aws</title>
<path fill="none" stroke="#000000" d="M661.6334,-143.8314C648.727,-133.6197 632.5839,-120.8472 619.2616,-110.3065"/>
<polygon fill="#000000" stroke="#000000" points="621.3992,-107.5347 611.3853,-104.0747 617.0558,-113.0243 621.3992,-107.5347"/>
</g>
<!-- [root] var.aws_access_key -->
<g id="node13" class="node">
<title>[root] var.aws_access_key</title>
<ellipse fill="none" stroke="#000000" cx="370.5965" cy="-18" rx="103.3419" ry="18"/>
<text text-anchor="middle" x="370.5965" y="-13.8" font-family="Times,serif" font-size="14.00" fill="#000000">[root] var.aws_access_key</text>
</g>
<!-- [root] provider.aws&#45;&gt;[root] var.aws_access_key -->
<g id="edge14" class="edge">
<title>[root] provider.aws&#45;&gt;[root] var.aws_access_key</title>
<path fill="none" stroke="#000000" d="M560.6921,-79.3762C526.1855,-68.235 471.2452,-50.4964 429.2828,-36.948"/>
<polygon fill="#000000" stroke="#000000" points="430.3206,-33.6053 419.7289,-33.8634 428.1697,-40.2667 430.3206,-33.6053"/>
</g>
<!-- [root] var.aws_secret_key -->
<g id="node14" class="node">
<title>[root] var.aws_secret_key</title>
<ellipse fill="none" stroke="#000000" cx="593.5965" cy="-18" rx="101.4124" ry="18"/>
<text text-anchor="middle" x="593.5965" y="-13.8" font-family="Times,serif" font-size="14.00" fill="#000000">[root] var.aws_secret_key</text>
</g>
<!-- [root] provider.aws&#45;&gt;[root] var.aws_secret_key -->
<g id="edge15" class="edge">
<title>[root] provider.aws&#45;&gt;[root] var.aws_secret_key</title>
<path fill="none" stroke="#000000" d="M593.5965,-71.8314C593.5965,-64.131 593.5965,-54.9743 593.5965,-46.4166"/>
<polygon fill="#000000" stroke="#000000" points="597.0966,-46.4132 593.5965,-36.4133 590.0966,-46.4133 597.0966,-46.4132"/>
</g>
<!-- [root] var.region -->
<g id="node15" class="node">
<title>[root] var.region</title>
<ellipse fill="none" stroke="#000000" cx="781.5965" cy="-18" rx="68.1287" ry="18"/>
<text text-anchor="middle" x="781.5965" y="-13.8" font-family="Times,serif" font-size="14.00" fill="#000000">[root] var.region</text>
</g>
<!-- [root] provider.aws&#45;&gt;[root] var.region -->
<g id="edge16" class="edge">
<title>[root] provider.aws&#45;&gt;[root] var.region</title>
<path fill="none" stroke="#000000" d="M623.3857,-78.5914C652.9131,-67.283 698.6325,-49.7734 733.3448,-36.4794"/>
<polygon fill="#000000" stroke="#000000" points="734.7341,-39.6953 742.8209,-32.8502 732.2306,-33.1583 734.7341,-39.6953"/>
</g>
<!-- [root] meta.count&#45;boundary (count boundary fixup) -->
<g id="node11" class="node">
<title>[root] meta.count&#45;boundary (count boundary fixup)</title>
<ellipse fill="none" stroke="#000000" cx="191.5965" cy="-450" rx="191.6931" ry="18"/>
<text text-anchor="middle" x="191.5965" y="-445.8" font-family="Times,serif" font-size="14.00" fill="#000000">[root] meta.count&#45;boundary (count boundary fixup)</text>
</g>
<!-- [root] meta.count&#45;boundary (count boundary fixup)&#45;&gt;[root] aws_route_table_association.public_subnet -->
<g id="edge12" class="edge">
<title>[root] meta.count&#45;boundary (count boundary fixup)&#45;&gt;[root] aws_route_table_association.public_subnet</title>
<path fill="none" stroke="#000000" d="M230.4055,-432.2022C251.3815,-422.5827 277.4884,-410.6101 299.8266,-400.3658"/>
<polygon fill="#000000" stroke="#000000" points="301.5127,-403.4431 309.1435,-396.0931 298.5947,-397.0803 301.5127,-403.4431"/>
</g>
<!-- [root] provider.aws (close) -->
<g id="node12" class="node">
<title>[root] provider.aws (close)</title>
<ellipse fill="none" stroke="#000000" cx="505.5965" cy="-450" rx="104.3276" ry="18"/>
<text text-anchor="middle" x="505.5965" y="-445.8" font-family="Times,serif" font-size="14.00" fill="#000000">[root] provider.aws (close)</text>
</g>
<!-- [root] provider.aws (close)&#45;&gt;[root] aws_route_table_association.public_subnet -->
<g id="edge13" class="edge">
<title>[root] provider.aws (close)&#45;&gt;[root] aws_route_table_association.public_subnet</title>
<path fill="none" stroke="#000000" d="M468.787,-433.1192C447.4385,-423.3288 420.2947,-410.8807 397.2064,-400.2924"/>
<polygon fill="#000000" stroke="#000000" points="398.4686,-397.0208 387.9199,-396.0336 395.5506,-403.3836 398.4686,-397.0208"/>
</g>
<!-- [root] root -->
<g id="node16" class="node">
<title>[root] root</title>
<ellipse fill="none" stroke="#000000" cx="348.5965" cy="-522" rx="46.8976" ry="18"/>
<text text-anchor="middle" x="348.5965" y="-517.8" font-family="Times,serif" font-size="14.00" fill="#000000">[root] root</text>
</g>
<!-- [root] root&#45;&gt;[root] meta.count&#45;boundary (count boundary fixup) -->
<g id="edge17" class="edge">
<title>[root] root&#45;&gt;[root] meta.count&#45;boundary (count boundary fixup)</title>
<path fill="none" stroke="#000000" d="M318.3253,-508.1177C295.9458,-497.8544 265.0277,-483.6754 239.3332,-471.892"/>
<polygon fill="#000000" stroke="#000000" points="240.6774,-468.658 230.1287,-467.6708 237.7594,-475.0208 240.6774,-468.658"/>
</g>
<!-- [root] root&#45;&gt;[root] provider.aws (close) -->
<g id="edge18" class="edge">
<title>[root] root&#45;&gt;[root] provider.aws (close)</title>
<path fill="none" stroke="#000000" d="M378.8677,-508.1177C401.7234,-497.6361 433.4849,-483.0703 459.4926,-471.1432"/>
<polygon fill="#000000" stroke="#000000" points="461.1563,-474.2308 468.787,-466.8808 458.2382,-467.868 461.1563,-474.2308"/>
</g>
</g>
</svg>
