<?xml version="1.0" encoding="UTF-8" standalone="no"?>
<!DOCTYPE svg PUBLIC "-//W3C//DTD SVG 1.1//EN"
 "http://www.w3.org/Graphics/SVG/1.1/DTD/svg11.dtd">
<!-- Generated by graphviz version 2.40.1 (20161225.0304)
 -->
<!-- Title: %3 Pages: 1 -->
<svg width="1021pt" height="404pt"
 viewBox="0.00 0.00 1021.18 404.00" xmlns="http://www.w3.org/2000/svg" xmlns:xlink="http://www.w3.org/1999/xlink">
<g id="graph0" class="graph" transform="scale(1 1) rotate(0) translate(4 400)">
<title>%3</title>
<polygon fill="#ffffff" stroke="transparent" points="-4,4 -4,-400 1017.1808,-400 1017.1808,4 -4,4"/>
<!-- [root] aws_subnet.subnet_private -->
<g id="node1" class="node">
<title>[root] aws_subnet.subnet_private</title>
<polygon fill="none" stroke="#000000" points="705.1662,-252 537.6756,-252 537.6756,-216 705.1662,-216 705.1662,-252"/>
<text text-anchor="middle" x="621.4209" y="-229.8" font-family="Times,serif" font-size="14.00" fill="#000000">aws_subnet.subnet_private</text>
</g>
<!-- [root] aws_vpc.vpc_factorsense -->
<g id="node3" class="node">
<title>[root] aws_vpc.vpc_factorsense</title>
<polygon fill="none" stroke="#000000" points="585.5873,-180 427.2546,-180 427.2546,-144 585.5873,-144 585.5873,-180"/>
<text text-anchor="middle" x="506.4209" y="-157.8" font-family="Times,serif" font-size="14.00" fill="#000000">aws_vpc.vpc_factorsense</text>
</g>
<!-- [root] aws_subnet.subnet_private&#45;&gt;[root] aws_vpc.vpc_factorsense -->
<g id="edge1" class="edge">
<title>[root] aws_subnet.subnet_private&#45;&gt;[root] aws_vpc.vpc_factorsense</title>
<path fill="none" stroke="#000000" d="M592.4016,-215.8314C577.6924,-206.6221 559.6565,-195.3301 543.9087,-185.4706"/>
<polygon fill="#000000" stroke="#000000" points="545.7642,-182.5029 535.431,-180.1628 542.0495,-188.436 545.7642,-182.5029"/>
</g>
<!-- [root] var.availability_zones -->
<g id="node5" class="node">
<title>[root] var.availability_zones</title>
<ellipse fill="none" stroke="#000000" cx="713.4209" cy="-162" rx="109.6238" ry="18"/>
<text text-anchor="middle" x="713.4209" y="-157.8" font-family="Times,serif" font-size="14.00" fill="#000000">[root] var.availability_zones</text>
</g>
<!-- [root] aws_subnet.subnet_private&#45;&gt;[root] var.availability_zones -->
<g id="edge2" class="edge">
<title>[root] aws_subnet.subnet_private&#45;&gt;[root] var.availability_zones</title>
<path fill="none" stroke="#000000" d="M644.6364,-215.8314C656.2516,-206.7412 670.4597,-195.6219 682.9409,-185.8539"/>
<polygon fill="#000000" stroke="#000000" points="685.131,-188.5844 690.8489,-179.665 680.8168,-183.0719 685.131,-188.5844"/>
</g>
<!-- [root] var.subnet_bits -->
<g id="node6" class="node">
<title>[root] var.subnet_bits</title>
<ellipse fill="none" stroke="#000000" cx="927.4209" cy="-162" rx="85.5205" ry="18"/>
<text text-anchor="middle" x="927.4209" y="-157.8" font-family="Times,serif" font-size="14.00" fill="#000000">[root] var.subnet_bits</text>
</g>
<!-- [root] aws_subnet.subnet_private&#45;&gt;[root] var.subnet_bits -->
<g id="edge3" class="edge">
<title>[root] aws_subnet.subnet_private&#45;&gt;[root] var.subnet_bits</title>
<path fill="none" stroke="#000000" d="M698.2427,-215.9243C747.9922,-204.2185 812.1687,-189.1182 859.9491,-177.8757"/>
<polygon fill="#000000" stroke="#000000" points="860.9525,-181.2353 869.885,-175.5379 859.3492,-174.4214 860.9525,-181.2353"/>
</g>
<!-- [root] aws_subnet.subnet_public -->
<g id="node2" class="node">
<title>[root] aws_subnet.subnet_public</title>
<polygon fill="none" stroke="#000000" points="886.2905,-252 722.5514,-252 722.5514,-216 886.2905,-216 886.2905,-252"/>
<text text-anchor="middle" x="804.4209" y="-229.8" font-family="Times,serif" font-size="14.00" fill="#000000">aws_subnet.subnet_public</text>
</g>
<!-- [root] aws_subnet.subnet_public&#45;&gt;[root] aws_vpc.vpc_factorsense -->
<g id="edge4" class="edge">
<title>[root] aws_subnet.subnet_public&#45;&gt;[root] aws_vpc.vpc_factorsense</title>
<path fill="none" stroke="#000000" d="M729.6076,-215.9243C687.3721,-205.7198 634.4596,-192.9355 590.7559,-182.3762"/>
<polygon fill="#000000" stroke="#000000" points="591.5489,-178.9672 581.0065,-180.0207 589.9048,-185.7714 591.5489,-178.9672"/>
</g>
<!-- [root] aws_subnet.subnet_public&#45;&gt;[root] var.availability_zones -->
<g id="edge5" class="edge">
<title>[root] aws_subnet.subnet_public&#45;&gt;[root] var.availability_zones</title>
<path fill="none" stroke="#000000" d="M781.4578,-215.8314C770.0783,-206.8278 756.1827,-195.8335 743.9228,-186.1334"/>
<polygon fill="#000000" stroke="#000000" points="745.7615,-183.1251 735.7476,-179.665 741.4181,-188.6147 745.7615,-183.1251"/>
</g>
<!-- [root] aws_subnet.subnet_public&#45;&gt;[root] var.subnet_bits -->
<g id="edge6" class="edge">
<title>[root] aws_subnet.subnet_public&#45;&gt;[root] var.subnet_bits</title>
<path fill="none" stroke="#000000" d="M835.459,-215.8314C851.822,-206.253 872.0339,-194.4217 889.3382,-184.2923"/>
<polygon fill="#000000" stroke="#000000" points="891.2243,-187.2439 898.0864,-179.1715 887.6881,-181.2027 891.2243,-187.2439"/>
</g>
<!-- [root] provider.aws -->
<g id="node4" class="node">
<title>[root] provider.aws</title>
<polygon fill="none" stroke="#000000" points="326.4209,-108 247.8126,-90 326.4209,-72 405.0293,-90 326.4209,-108"/>
<text text-anchor="middle" x="326.4209" y="-85.8" font-family="Times,serif" font-size="14.00" fill="#000000">provider.aws</text>
</g>
<!-- [root] aws_vpc.vpc_factorsense&#45;&gt;[root] provider.aws -->
<g id="edge7" class="edge">
<title>[root] aws_vpc.vpc_factorsense&#45;&gt;[root] provider.aws</title>
<path fill="none" stroke="#000000" d="M460.9993,-143.8314C431.2803,-131.9437 392.8851,-116.5857 364.7162,-105.3181"/>
<polygon fill="#000000" stroke="#000000" points="365.7947,-101.9799 355.21,-101.5156 363.1949,-108.4793 365.7947,-101.9799"/>
</g>
<!-- [root] var.cidr_block -->
<g id="node7" class="node">
<title>[root] var.cidr_block</title>
<ellipse fill="none" stroke="#000000" cx="506.4209" cy="-90" rx="83.0804" ry="18"/>
<text text-anchor="middle" x="506.4209" y="-85.8" font-family="Times,serif" font-size="14.00" fill="#000000">[root] var.cidr_block</text>
</g>
<!-- [root] aws_vpc.vpc_factorsense&#45;&gt;[root] var.cidr_block -->
<g id="edge8" class="edge">
<title>[root] aws_vpc.vpc_factorsense&#45;&gt;[root] var.cidr_block</title>
<path fill="none" stroke="#000000" d="M506.4209,-143.8314C506.4209,-136.131 506.4209,-126.9743 506.4209,-118.4166"/>
<polygon fill="#000000" stroke="#000000" points="509.921,-118.4132 506.4209,-108.4133 502.921,-118.4133 509.921,-118.4132"/>
</g>
<!-- [root] var.name -->
<g id="node8" class="node">
<title>[root] var.name</title>
<ellipse fill="none" stroke="#000000" cx="672.4209" cy="-90" rx="64.7459" ry="18"/>
<text text-anchor="middle" x="672.4209" y="-85.8" font-family="Times,serif" font-size="14.00" fill="#000000">[root] var.name</text>
</g>
<!-- [root] aws_vpc.vpc_factorsense&#45;&gt;[root] var.name -->
<g id="edge9" class="edge">
<title>[root] aws_vpc.vpc_factorsense&#45;&gt;[root] var.name</title>
<path fill="none" stroke="#000000" d="M548.3097,-143.8314C572.6674,-133.2666 603.3448,-119.9607 628.1055,-109.2212"/>
<polygon fill="#000000" stroke="#000000" points="629.4985,-112.4321 637.28,-105.2418 626.7131,-106.0101 629.4985,-112.4321"/>
</g>
<!-- [root] var.aws_access_key -->
<g id="node11" class="node">
<title>[root] var.aws_access_key</title>
<ellipse fill="none" stroke="#000000" cx="103.4209" cy="-18" rx="103.3419" ry="18"/>
<text text-anchor="middle" x="103.4209" y="-13.8" font-family="Times,serif" font-size="14.00" fill="#000000">[root] var.aws_access_key</text>
</g>
<!-- [root] provider.aws&#45;&gt;[root] var.aws_access_key -->
<g id="edge14" class="edge">
<title>[root] provider.aws&#45;&gt;[root] var.aws_access_key</title>
<path fill="none" stroke="#000000" d="M293.5165,-79.3762C259.0099,-68.235 204.0696,-50.4964 162.1072,-36.948"/>
<polygon fill="#000000" stroke="#000000" points="163.145,-33.6053 152.5533,-33.8634 160.9942,-40.2667 163.145,-33.6053"/>
</g>
<!-- [root] var.aws_secret_key -->
<g id="node12" class="node">
<title>[root] var.aws_secret_key</title>
<ellipse fill="none" stroke="#000000" cx="326.4209" cy="-18" rx="101.4124" ry="18"/>
<text text-anchor="middle" x="326.4209" y="-13.8" font-family="Times,serif" font-size="14.00" fill="#000000">[root] var.aws_secret_key</text>
</g>
<!-- [root] provider.aws&#45;&gt;[root] var.aws_secret_key -->
<g id="edge15" class="edge">
<title>[root] provider.aws&#45;&gt;[root] var.aws_secret_key</title>
<path fill="none" stroke="#000000" d="M326.4209,-71.8314C326.4209,-64.131 326.4209,-54.9743 326.4209,-46.4166"/>
<polygon fill="#000000" stroke="#000000" points="329.921,-46.4132 326.4209,-36.4133 322.921,-46.4133 329.921,-46.4132"/>
</g>
<!-- [root] var.region -->
<g id="node13" class="node">
<title>[root] var.region</title>
<ellipse fill="none" stroke="#000000" cx="514.4209" cy="-18" rx="68.1287" ry="18"/>
<text text-anchor="middle" x="514.4209" y="-13.8" font-family="Times,serif" font-size="14.00" fill="#000000">[root] var.region</text>
</g>
<!-- [root] provider.aws&#45;&gt;[root] var.region -->
<g id="edge16" class="edge">
<title>[root] provider.aws&#45;&gt;[root] var.region</title>
<path fill="none" stroke="#000000" d="M356.2101,-78.5914C385.7375,-67.283 431.457,-49.7734 466.1692,-36.4794"/>
<polygon fill="#000000" stroke="#000000" points="467.5586,-39.6953 475.6453,-32.8502 465.055,-33.1583 467.5586,-39.6953"/>
</g>
<!-- [root] meta.count&#45;boundary (count boundary fixup) -->
<g id="node9" class="node">
<title>[root] meta.count&#45;boundary (count boundary fixup)</title>
<ellipse fill="none" stroke="#000000" cx="556.4209" cy="-306" rx="191.6931" ry="18"/>
<text text-anchor="middle" x="556.4209" y="-301.8" font-family="Times,serif" font-size="14.00" fill="#000000">[root] meta.count&#45;boundary (count boundary fixup)</text>
</g>
<!-- [root] meta.count&#45;boundary (count boundary fixup)&#45;&gt;[root] aws_subnet.subnet_private -->
<g id="edge10" class="edge">
<title>[root] meta.count&#45;boundary (count boundary fixup)&#45;&gt;[root] aws_subnet.subnet_private</title>
<path fill="none" stroke="#000000" d="M572.8232,-287.8314C580.4625,-279.3694 589.6893,-269.1489 598.0416,-259.8971"/>
<polygon fill="#000000" stroke="#000000" points="600.6947,-262.1813 604.7978,-252.4133 595.4988,-257.4906 600.6947,-262.1813"/>
</g>
<!-- [root] meta.count&#45;boundary (count boundary fixup)&#45;&gt;[root] aws_subnet.subnet_public -->
<g id="edge11" class="edge">
<title>[root] meta.count&#45;boundary (count boundary fixup)&#45;&gt;[root] aws_subnet.subnet_public</title>
<path fill="none" stroke="#000000" d="M615.508,-288.8457C650.6227,-278.6511 695.4094,-265.6485 732.5611,-254.8625"/>
<polygon fill="#000000" stroke="#000000" points="733.6981,-258.177 742.3257,-252.0277 731.7463,-251.4546 733.6981,-258.177"/>
</g>
<!-- [root] provider.aws (close) -->
<g id="node10" class="node">
<title>[root] provider.aws (close)</title>
<ellipse fill="none" stroke="#000000" cx="870.4209" cy="-306" rx="104.3276" ry="18"/>
<text text-anchor="middle" x="870.4209" y="-301.8" font-family="Times,serif" font-size="14.00" fill="#000000">[root] provider.aws (close)</text>
</g>
<!-- [root] provider.aws (close)&#45;&gt;[root] aws_subnet.subnet_private -->
<g id="edge12" class="edge">
<title>[root] provider.aws (close)&#45;&gt;[root] aws_subnet.subnet_private</title>
<path fill="none" stroke="#000000" d="M816.6982,-290.4657C780.7174,-280.0616 732.9266,-266.2426 693.6297,-254.8796"/>
<polygon fill="#000000" stroke="#000000" points="694.413,-251.4628 683.8343,-252.0472 692.4685,-258.1873 694.413,-251.4628"/>
</g>
<!-- [root] provider.aws (close)&#45;&gt;[root] aws_subnet.subnet_public -->
<g id="edge13" class="edge">
<title>[root] provider.aws (close)&#45;&gt;[root] aws_subnet.subnet_public</title>
<path fill="none" stroke="#000000" d="M854.1063,-288.2022C846.2332,-279.6134 836.6405,-269.1486 827.9913,-259.7131"/>
<polygon fill="#000000" stroke="#000000" points="830.3436,-257.0996 821.0063,-252.0931 825.1835,-261.8297 830.3436,-257.0996"/>
</g>
<!-- [root] root -->
<g id="node14" class="node">
<title>[root] root</title>
<ellipse fill="none" stroke="#000000" cx="713.4209" cy="-378" rx="46.8976" ry="18"/>
<text text-anchor="middle" x="713.4209" y="-373.8" font-family="Times,serif" font-size="14.00" fill="#000000">[root] root</text>
</g>
<!-- [root] root&#45;&gt;[root] meta.count&#45;boundary (count boundary fixup) -->
<g id="edge17" class="edge">
<title>[root] root&#45;&gt;[root] meta.count&#45;boundary (count boundary fixup)</title>
<path fill="none" stroke="#000000" d="M683.1498,-364.1177C660.7702,-353.8544 629.8521,-339.6754 604.1576,-327.892"/>
<polygon fill="#000000" stroke="#000000" points="605.5018,-324.658 594.9531,-323.6708 602.5838,-331.0208 605.5018,-324.658"/>
</g>
<!-- [root] root&#45;&gt;[root] provider.aws (close) -->
<g id="edge18" class="edge">
<title>[root] root&#45;&gt;[root] provider.aws (close)</title>
<path fill="none" stroke="#000000" d="M743.6921,-364.1177C766.5479,-353.6361 798.3093,-339.0703 824.3171,-327.1432"/>
<polygon fill="#000000" stroke="#000000" points="825.9807,-330.2308 833.6114,-322.8808 823.0627,-323.868 825.9807,-330.2308"/>
</g>
</g>
</svg>
